<?xml version="1.0" encoding="utf-8"?>
<!-- Generator: Adobe Illustrator 16.0.0, SVG Export Plug-In . SVG Version: 6.00 Build 0)  -->
<!DOCTYPE svg PUBLIC "-//W3C//DTD SVG 1.1//EN" "http://www.w3.org/Graphics/SVG/1.1/DTD/svg11.dtd">
<svg version="1.1" id="Layer_1" xmlns="http://www.w3.org/2000/svg" xmlns:xlink="http://www.w3.org/1999/xlink" x="0px" y="0px"
	 width="10.518px" height="13.053px" viewBox="0 0 10.518 13.053" enable-background="new 0 0 10.518 13.053" xml:space="preserve">
<g>
	<path fill="#29A283" d="M4.966,5.959H2.045v0.567h2.921V5.959L4.966,5.959z M2.045,9.931h6.427V9.362H2.045V9.931L2.045,9.931z
		 M10.414,3.872l0.017-0.101L6.825,0H5.55C3.413,0,1.169,0,1.169,0C0.523,0,0,0.508,0,1.135v10.783c0,0.627,0.523,1.135,1.169,1.135
		h8.18c0.646,0,1.169-0.509,1.169-1.135V3.973L10.414,3.872L10.414,3.872z M7.012,1.039l2.556,2.649H7.595
		c-0.321,0-0.583-0.254-0.583-0.567V1.039L7.012,1.039z M9.932,11.917c0,0.312-0.263,0.566-0.584,0.566h-8.18
		c-0.322,0-0.585-0.254-0.585-0.566V1.135c0-0.312,0.263-0.567,0.585-0.567h5.258v2.554c0,0.627,0.523,1.135,1.169,1.135h2.338
		L9.932,11.917L9.932,11.917L9.932,11.917z M2.045,8.228h6.427V7.661H2.045V8.228L2.045,8.228z M4.966,4.256H2.045v0.567h2.921
		V4.256L4.966,4.256z"/>
</g>
</svg>
