<?xml version="1.0" encoding="UTF-8" standalone="no"?>
<svg width="32px" height="32px" viewBox="0 0 32 32" version="1.1" xmlns="http://www.w3.org/2000/svg" xmlns:xlink="http://www.w3.org/1999/xlink">
    <!-- Generator: Sketch 39 (31667) - http://www.bohemiancoding.com/sketch -->
    <title>Shape</title>
    <desc>Created with Sketch.</desc>
    <defs></defs>
    <g id="Page-1" stroke="none" stroke-width="1" fill="none" fill-rule="evenodd">
        <g id="Tablet-9″-Landscape" transform="translate(-695.000000, -720.000000)" fill="#9E9E9E">
            <path d="M711,752 C702.164,752 695,744.836 695,736 C695,727.163 702.163,720 711,720 C719.837,720 727,727.163 727,736 C727,744.836 719.837,752 711,752 L711,752 Z M711,721.888889 C703.207643,721.888889 696.888889,728.206635 696.888889,736 C696.888889,743.793365 703.206635,750.111111 711,750.111111 C718.793365,750.111111 725.111111,743.793365 725.111111,736 C725.111111,728.206635 718.794373,721.888889 711,721.888889 L711,721.888889 Z M717.393,730.434 C717.669,729.955 717.505,729.344 717.027,729.068 C716.549,728.792 715.937,728.955 715.661,729.433 L709.265,740.511 L705.687,737.211 C705.31,736.808 704.677,736.787 704.273,737.164 C703.87,737.542 703.85,738.175 704.227,738.577 L708.799,742.795 C709.176,743.197 709.809,743.218 710.212,742.841 C710.336,742.726 717.393,730.434 717.393,730.434 L717.393,730.434 Z" id="Shape"></path>
        </g>
    </g>
</svg>