<?xml version="1.0" encoding="UTF-8" standalone="no"?>
<svg width="116px" height="116px" viewBox="0 0 116 116" version="1.1" xmlns="http://www.w3.org/2000/svg" xmlns:xlink="http://www.w3.org/1999/xlink">
    <!-- Generator: Sketch 39 (31667) - http://www.bohemiancoding.com/sketch -->
    <title>Group 24</title>
    <desc>Created with Sketch.</desc>
    <defs>
        <path d="M39.1448618,33.2178218 L39.1448618,56.163735 C39.1448618,58.8347304 37.0816605,61 34.5393394,61 L4.60552235,61 C2.06196259,61 0,58.8379449 0,56.1624446 L0,4.83755538 C0,2.16584732 2.06320124,0 4.60552235,0 L34.5393394,0 C36.5918462,0 38.3307578,1.40794725 38.925678,3.35642513" id="path-1"></path>
        <mask id="mask-2" maskContentUnits="userSpaceOnUse" maskUnits="objectBoundingBox" x="0" y="0" width="39.1448618" height="61" fill="white">
            <use xlink:href="#path-1"></use>
        </mask>
        <polyline id="path-3" points="33.3882644 33.2178218 33.3882644 49.5247525 5.75659732 49.5247525 5.75659732 6.03960396 33.3882644 6.03960396 33.3882644 10.8712871"></polyline>
        <mask id="mask-4" maskContentUnits="userSpaceOnUse" maskUnits="objectBoundingBox" x="0" y="0" width="27.6316671" height="43.4851485" fill="white">
            <use xlink:href="#path-3"></use>
        </mask>
        <path d="M26.1562194,10.1219614 L26.1562194,7.20231698 L26.1562194,3.67768303 C26.1562194,3.67768303 26.2278057,2.31850928 26.2993919,0.959335524 C26.2903901,0.535663701 26.2505205,0.21562887 26.1562194,0.153049089 C26.0104518,0.0563152892 25.0614485,0.364483848 24.7868688,0.959335533 C24.4459593,1.69788457 24.3665665,2.9727564 24.3665665,2.9727564 L14.5988201,6.49739019 L14.5988201,19.8909992 L24.3665664,23.4656162 C24.3665664,23.4656162 24.4703223,25.0405164 24.7868688,25.530414 C25.1034153,26.0203116 26.1562194,26.2353408 26.1562194,26.2353408 L26.1562194,22.0057795 L26.1562194,16.266428 C27.2056478,15.9142831 27.9810719,14.6722988 27.9810719,13.1941947 C27.9810719,11.7160905 27.2056478,10.4741062 26.1562194,10.1219614 Z M2.43313669,17.0545462 L2.43313669,19.8909992 L13.990536,19.8909992 L13.990536,6.49739019 L2.43313669,6.49739019 L2.43313669,9.33384283 C1.06690056,9.48519432 -1.26121336e-13,10.6439395 -1.26121336e-13,12.0509363 L-1.26121336e-13,14.337453 C-1.26121336e-13,15.7402624 1.06451237,16.9029083 2.43313669,17.0545462 Z" id="path-5"></path>
        <mask id="mask-6" maskContentUnits="userSpaceOnUse" maskUnits="objectBoundingBox" x="0" y="0" width="27.9810719" height="26.0998314" fill="white">
            <use xlink:href="#path-5"></use>
        </mask>
    </defs>
    <g id="Page-1" stroke="none" stroke-width="1" fill="none" fill-rule="evenodd">
        <g id="Tablet-9″-Landscape" transform="translate(-1186.000000, -481.000000)">
            <g id="Group-24" transform="translate(1187.000000, 482.000000)">
                <path d="M57,114 C88.4802307,114 114,88.4802307 114,57 C114,25.5197693 88.4802307,0 57,0 C25.5197693,0 0,25.5197693 0,57 C0,88.4802307 25.5197693,114 57,114 Z" id="Oval-4-Copy-7" stroke="#0097FC"></path>
                <g id="Group-6-Copy" transform="translate(37.000000, 26.000000)">
                    <ellipse id="Oval-Copy-2" fill="#0097FC" cx="19.5724309" cy="53.7524752" rx="1.7269792" ry="1.81188119"></ellipse>
                    <use id="Combined-Shape-Copy-2" stroke="#0097FC" mask="url(#mask-2)" stroke-width="2" stroke-linecap="round" stroke-linejoin="round" xlink:href="#path-1"></use>
                    <use id="Rectangle-2-Copy-2" stroke="#0097FC" mask="url(#mask-4)" stroke-width="2" stroke-linecap="round" xlink:href="#path-3"></use>
                    <g id="Group-5" transform="translate(33.465725, 24.354828) rotate(-20.000000) translate(-33.465725, -24.354828) translate(19.465725, 9.854828)" stroke="#0097FC">
                        <use id="Combined-Shape" mask="url(#mask-6)" stroke-width="2" xlink:href="#path-5"></use>
                        <polygon id="Path-5" points="2.71557722 20.9092268 7.29941007 20.9092268 5.77146579 23.8789183 5.77146579 28.3334557 2.71557722 28.3334557"></polygon>
                        <path d="M2.73727878,11.0794143 L2.73727878,15.308975" id="Line" stroke-linecap="square"></path>
                        <path d="M24.0272248,5.44 L24.0272248,20.2602371" id="Line" stroke-linecap="square"></path>
                    </g>
                </g>
                <path d="" id="Path-2-Copy-5" stroke="#2D82BC"></path>
            </g>
        </g>
    </g>
</svg>