<?xml version="1.0" encoding="UTF-8" standalone="no"?>
<svg width="116px" height="116px" viewBox="0 0 116 116" version="1.1" xmlns="http://www.w3.org/2000/svg" xmlns:xlink="http://www.w3.org/1999/xlink">
    <!-- Generator: Sketch 39 (31667) - http://www.bohemiancoding.com/sketch -->
    <title>Group 16</title>
    <desc>Created with Sketch.</desc>
    <defs></defs>
    <g id="Page-1" stroke="none" stroke-width="1" fill="none" fill-rule="evenodd">
        <g id="Tablet-9″-Landscape" transform="translate(-529.000000, -484.000000)" stroke="#787878">
            <g id="Group-16" transform="translate(530.000000, 485.000000)">
                <ellipse id="Oval-4-Copy" cx="57" cy="57" rx="57" ry="57"></ellipse>
                <g id="Group-2" transform="translate(25.000000, 22.000000)">
                    <path d="M46.5185185,40.2522936 L26.3703704,57.5458716" id="Line" stroke-linecap="square"></path>
                    <path d="M49.4814815,42.6376147 L42.962963,56.353211" id="Line" stroke-linecap="square"></path>
                    <path d="M32.2962963,28.9220183 L32.2962963,21.1697248" id="Line" stroke-linecap="square"></path>
                    <path d="M38.8148148,18.7844037 L48.8888889,30.7110092" id="Line" stroke-linecap="square"></path>
                    <ellipse id="Oval-5" cx="32.2962963" cy="9.83944954" rx="9.77777778" ry="9.83944954"></ellipse>
                    <ellipse id="Oval-5" cx="32.2962963" cy="9.83944954" rx="6.22222222" ry="6.26146789"></ellipse>
                    <ellipse id="Oval-5-Copy" cx="11.5555556" cy="35.4816514" rx="6.22222222" ry="6.26146789"></ellipse>
                    <ellipse id="Oval-5-Copy-4" cx="4.44444444" cy="60.5275229" rx="4.44444444" ry="4.47247706"></ellipse>
                    <ellipse id="Oval-5-Copy-5" cx="22.8148148" cy="60.5275229" rx="4.44444444" ry="4.47247706"></ellipse>
                    <ellipse id="Oval-5-Copy-6" cx="41.1851852" cy="60.5275229" rx="4.44444444" ry="4.47247706"></ellipse>
                    <ellipse id="Oval-5-Copy-7" cx="59.5555556" cy="60.5275229" rx="4.44444444" ry="4.47247706"></ellipse>
                    <path d="M54.8148148,43.233945 L58.3703704,55.7568807" id="Line" stroke-linecap="square"></path>
                    <path d="M15.1111111,30.1146789 L25.1851852,18.1880734" id="Line" stroke-linecap="square"></path>
                    <path d="M9.18518519,43.233945 L5.62962963,55.7568807" id="Line" stroke-linecap="square"></path>
                    <ellipse id="Oval-5-Copy-2" cx="32.2962963" cy="35.4816514" rx="6.22222222" ry="6.26146789"></ellipse>
                    <ellipse id="Oval-5-Copy-3" cx="53.037037" cy="35.4816514" rx="6.22222222" ry="6.26146789"></ellipse>
                </g>
            </g>
        </g>
    </g>
</svg>