<?xml version="1.0" encoding="UTF-8" standalone="no"?>
<svg width="15px" height="131px" viewBox="0 0 15 131" version="1.1" xmlns="http://www.w3.org/2000/svg" xmlns:xlink="http://www.w3.org/1999/xlink">
    <!-- Generator: Sketch 39 (31667) - http://www.bohemiancoding.com/sketch -->
    <title>v copy</title>
    <desc>Created with Sketch.</desc>
    <defs></defs>
    <g id="Page-1" stroke="none" stroke-width="1" fill="none" fill-rule="evenodd">
        <g id="v" transform="translate(-623.000000, -2860.000000)">
            <path d="M653.954494,2861.20333 C653.954494,2861.20333 661.586659,2861.61184 669.551582,2859.74285 C678.664139,2857.60457 688.685007,2853.06417 700.639563,2853.06417 C723.043118,2853.06417 730.25248,2865.50064 750.166751,2865.50064 C770.081022,2865.50064 803.686355,2848.53958 829.408955,2848.53958 C855.131555,2848.53958 871.311901,2875.1376 920.267817,2873.59569 C969.223734,2872.05378 980.425512,2839.67357 1019.42429,2839.67357 C1058.42307,2839.67357 1077.92246,2864.30999 1121.07005,2869.91654 C1164.21764,2875.52308 1184.13191,2847.76862 1222.71581,2849.31054 C1261.29971,2850.85245 1274.79445,2867.35144 1298.37777,2865.50064 C1311.86114,2864.06483 1328.87372,2853.06417 1345.89741,2853.06417 C1357.77935,2853.06417 1371.58686,2861.25872 1396.17847,2861.25872 L1667.49705,2861.25872 L1667.49705,2993.72212 L501,2993.72212 L501,2861.25872" id="v-copy-3" fill="#F5F5F5"></path>
            <path d="M530.553896,2860.09292 L651.800649,2860.09292" id="Line-Copy-58" stroke="#CACACA" stroke-linecap="square"></path>
        </g>
    </g>
</svg>