<?xml version="1.0" encoding="UTF-8" standalone="no"?>
<svg width="980px" height="274px" viewBox="0 0 980 274" version="1.1" xmlns="http://www.w3.org/2000/svg" xmlns:xlink="http://www.w3.org/1999/xlink">
    <!-- Generator: Sketch 39 (31667) - http://www.bohemiancoding.com/sketch -->
    <title>v</title>
    <desc>Created with Sketch.</desc>
    <defs>
        <path d="M-2.5845992e-13,2.99841819 C-2.5845992e-13,1.34243755 1.34489061,-2.37587727e-12 3.00314072,-2.37587727e-12 L21.1591351,-2.37587727e-12 C22.2604286,-2.37587727e-12 23.769611,0.657501549 24.5255017,1.46378493 L28.7268659,5.94524013 C29.4847654,6.75366623 29.5307472,8.09112563 28.825168,8.93782063 L24.4271996,14.2153827 C23.7235909,15.0597132 22.2597572,15.7441783 21.1591351,15.7441783 L3.00314072,15.7441783 C1.3445519,15.7441783 -2.5845992e-13,14.4018385 -2.5845992e-13,12.7457601 L-2.5845992e-13,2.99841819 Z" id="path-1"></path>
        <mask id="mask-2" maskContentUnits="userSpaceOnUse" maskUnits="objectBoundingBox" x="0" y="0" width="29.3261545" height="15.7441783" fill="white">
            <use xlink:href="#path-1"></use>
        </mask>
        <path d="M5.34367687,18.862244 L2.51279434,18.862244 C1.23221681,18.862244 0.1941036,17.8292245 0.1941036,16.547596 L0.1941036,5.43271369 L0.1941036,5.43271369 C0.1941036,4.1543689 1.23392829,3.1180657 2.50943871,3.1180657 L22.4253862,3.1180657 C22.9345489,3.1180657 23.6281997,3.41768463 23.9821282,3.79520841" id="path-3"></path>
        <mask id="mask-4" maskContentUnits="userSpaceOnUse" maskUnits="objectBoundingBox" x="0" y="0" width="23.7880246" height="15.7441783" fill="white">
            <use xlink:href="#path-3"></use>
        </mask>
        <path d="M0,14 C0,10.4009803 0,4.56818025 0,0.966796875 L0,7.48339844 C0,3.88437877 2.91639804,0.966796875 6.00881315,0.966796875 L0,0.966796875 C3.31857587,0.966796875 6.66894377,0.966796875 6.66894377,0.966796875 L6.00881315,0.966796875 C6.37339322,0.966796875 9.58180091,0.966796875 13.1854528,0.966796875 L15.2598268,0.966796875 C18.8587953,0.966796875 21.7763358,3.89170206 21.7763358,7.48339844 L21.7763358,7.48339844 C21.7763358,11.0824181 18.8564972,14 15.2521385,14 L12.9689625,14 C9.36574783,14 5.448219,14 5.448219,14 L6.44476518,14 C5.89438792,14 2.53271084,14 0,14 L5.448219,14 C2.43925073,14 0,11.0847818 0,7.48339844 L0,14 Z" id="path-5"></path>
        <mask id="mask-6" maskContentUnits="userSpaceOnUse" maskUnits="objectBoundingBox" x="0" y="0" width="21.7763358" height="13.0332031" fill="white">
            <use xlink:href="#path-5"></use>
        </mask>
        <path d="M23.0106233,14 C23.0106233,10.4009803 23.0106233,4.56818025 23.0106233,0.966796875 L23.0106233,7.48339844 C23.0106233,3.88437877 25.9270214,0.966796875 29.0194365,0.966796875 L23.0106233,0.966796875 C26.3291992,0.966796875 29.6795671,0.966796875 29.6795671,0.966796875 L29.0194365,0.966796875 C29.3840165,0.966796875 32.5924242,0.966796875 36.1960761,0.966796875 L38.2704501,0.966796875 C41.8694187,0.966796875 44.7869591,3.89170206 44.7869591,7.48339844 L44.7869591,7.48339844 C44.7869591,11.0824181 41.8671205,14 38.2627618,14 L35.9795858,14 C32.3763712,14 28.4588423,14 28.4588423,14 L29.4553885,14 C28.9050112,14 25.5433342,14 23.0106233,14 L28.4588423,14 C25.4498741,14 23.0106233,11.0847818 23.0106233,7.48339844 L23.0106233,14 Z" id="path-7"></path>
        <mask id="mask-8" maskContentUnits="userSpaceOnUse" maskUnits="objectBoundingBox" x="0" y="0" width="21.7763358" height="13.0332031" fill="white">
            <use xlink:href="#path-7"></use>
        </mask>
    </defs>
    <g id="Page-1" stroke="none" stroke-width="1" fill="none" fill-rule="evenodd">
        <g id="v" transform="translate(-423.000000, -2391.000000)">
            <path d="" id="Path-2-Copy-6" stroke="#979797" stroke-width="3" fill="#D8D8D8"></path>
            <g id="Group-Copy-7" opacity="0.4" transform="translate(654.462120, 2409.537820) rotate(-4.000000) translate(-654.462120, -2409.537820) translate(635.462120, 2396.537820)" stroke="#787878">
                <g id="Group" transform="translate(21.066867, 13.142255) rotate(-20.000000) translate(-21.066867, -13.142255) translate(6.066867, 5.142255)">
                    <use id="Rectangle-4" mask="url(#mask-2)" stroke-width="2" xlink:href="#path-1"></use>
                    <circle id="Oval-3" cx="21.9955432" cy="7.6405571" r="2.31532033"></circle>
                </g>
                <use id="Rectangle-4" mask="url(#mask-4)" stroke-width="2" xlink:href="#path-3"></use>
            </g>
            <circle id="Oval-40" stroke="#787878" opacity="0.295592351" cx="1357.5" cy="2447.5" r="5.5"></circle>
            <circle id="Oval-40-Copy" stroke="#787878" opacity="0.295592351" cx="1349" cy="2440" r="2"></circle>
            <g id="Group-67" opacity="0.446187034" transform="translate(982.265804, 2548.482543) rotate(10.000000) translate(-982.265804, -2548.482543) translate(972.765804, 2537.482543)" stroke="#787878">
                <path d="M18.8320875,20.6070174 C18.8320875,21.3531043 18.2259875,21.962887 17.4854625,21.962887 L1.4651375,21.962887 C0.7246125,21.962887 0.1189875,21.3531043 0.1189875,20.6070174 L0.1189875,1.47562609 C0.1189875,0.72953913 0.7246125,0.120234783 1.4651375,0.120234783 L17.4854625,0.120234783 C18.2259875,0.120234783 18.8320875,0.72953913 18.8320875,1.47562609 L18.8320875,20.6070174 L18.8320875,20.6070174 Z" id="Stroke-1"></path>
                <path d="M11.1600699,10.5385376 C11.6378391,10.8162969 11.6418487,11.2642666 11.1600699,11.5443117 L7.79062513,13.5028796 C7.31285595,13.7805941 6.9255475,13.5600874 6.9255475,12.9999521 L6.9255475,9.08250012 C6.9255475,8.52702646 7.30884634,8.29956338 7.79062513,8.57965367 L11.1600699,10.5385376 Z" id="Stroke-3"></path>
                <path d="M16.252505,21.9572913 C16.252505,21.9606391 16.25013,21.9630304 16.24728,21.9630304 L2.70408,21.9630304 C2.700755,21.9630304 2.69838,21.9606391 2.69838,21.9572913 L2.69838,0.12563913 C2.69838,0.122291304 2.700755,0.119421739 2.70408,0.119421739 L16.24728,0.119421739 C16.25013,0.119421739 16.252505,0.122291304 16.252505,0.12563913 L16.252505,21.9572913 L16.252505,21.9572913 Z" id="Stroke-5"></path>
                <path d="M0.11875,4.30434783 L2.698475,4.30434783" id="Stroke-7"></path>
                <path d="M0.11875,8.60869565 L2.698475,8.60869565" id="Stroke-9"></path>
                <path d="M0.11875,13.3913043 L2.698475,13.3913043" id="Stroke-11"></path>
                <path d="M0.11875,17.6956522 L2.698475,17.6956522" id="Stroke-13"></path>
                <path d="M16.252505,4.30434783 L18.83223,4.30434783" id="Stroke-15"></path>
                <path d="M16.252505,8.60869565 L18.83223,8.60869565" id="Stroke-17"></path>
                <path d="M16.252505,13.3913043 L18.83223,13.3913043" id="Stroke-19"></path>
                <path d="M16.252505,17.6956522 L18.83223,17.6956522" id="Stroke-21"></path>
            </g>
            <path d="M424,2493.46826 C424,2493.46826 434.077176,2494.00843 444.593711,2491.53711 C456.625532,2488.70971 469.856648,2482.70605 485.640918,2482.70605 C515.22159,2482.70605 524.740515,2499.15049 551.034446,2499.15049 C577.328376,2499.15049 621.699384,2476.7233 655.662377,2476.7233 C689.625371,2476.7233 710.98919,2511.8932 775.628435,2509.85437 C840.267681,2507.81553 855.058017,2465 906.550298,2465 C958.042578,2465 983.788719,2497.57612 1040.7589,2504.98951 C1097.72908,2512.40291 1124.02301,2475.70388 1174.9675,2477.74272 C1225.912,2479.78155 1243.72985,2501.59775 1274.86824,2499.15049 C1292.67109,2497.25195 1315.13376,2482.70605 1337.61108,2482.70605 C1353.29948,2482.70605 1371.53031,2493.5415 1404,2493.5415" id="Path-63" stroke="#CACACA"></path>
            <path d="M424.842262,2494.46826 C424.842262,2494.46826 434.913843,2495.00843 445.424538,2492.53711 C457.449678,2489.70971 470.673446,2483.70605 486.448952,2483.70605 C516.013198,2483.70605 525.526837,2500.15049 551.806167,2500.15049 C578.085496,2500.15049 622.431865,2477.7233 656.375999,2477.7233 C690.320133,2477.7233 711.672088,2512.8932 776.27544,2510.85437 C840.878792,2508.81553 855.660915,2466 907.124602,2466 C958.588289,2466 984.320133,2498.57612 1041.25868,2505.98951 C1098.19723,2513.40291 1124.47656,2476.70388 1175.39276,2478.74272 C1226.30896,2480.78155 1244.11692,2502.59775 1275.23801,2500.15049 C1293.03098,2498.25195 1315.48118,2483.70605 1337.94602,2483.70605 C1353.62571,2483.70605 1371.84641,2494.5415 1404.29807,2494.5415 L1762.3363,2494.5415 L1762.3363,2669.69453 L223,2669.69453 L223,2494.5415" fill="#F5F5F5"></path>
            <path d="M994.299125,2485.68779 C993.511363,2481.95124 989.587876,2479.17591 985.108844,2479.17591 C980.101681,2479.17591 976,2482.64979 976,2487.06191 C976,2489.60904 977.36427,2491.70059 979.645311,2493.32261 L978.734185,2496.11189 L981.918289,2494.48659 C983.0576,2494.71643 983.971952,2494.95202 985.108844,2494.95202 C985.394276,2494.95202 986.354963,2494.975 986.636364,2494.95202 C986.45817,2494.33227 986.340909,2493.47393 986.340909,2492.8 C986.340909,2488.74906 989.095223,2485.6328 993.421863,2485.6328 C993.717778,2485.6328 994.009661,2485.65496 994.299125,2485.68779 Z" id="Fill-1" stroke="#8DC6FB" fill="#FFFFFF"></path>
            <path d="M1001.52976,2492.33023 C1001.52976,2488.62241 997.886065,2485.6 993.792447,2485.6 C989.45855,2485.6 986.045455,2488.62241 986.045455,2492.33023 C986.045455,2496.0438 989.45855,2499.05964 993.792447,2499.05964 C994.699542,2499.05964 995.614699,2498.82651 996.525826,2498.59421 L999.024569,2499.98721 L998.339209,2497.6691 C1000.16791,2496.27282 1001.52976,2494.42096 1001.52976,2492.33023" id="Fill-3" stroke="#8DC6FB" stroke-linecap="round" fill="#FFFFFF"></path>
            <g id="Group-Copy-3" transform="translate(707.000000, 2467.000000)" stroke="#787878" fill="#FFFFFF">
                <path d="M32.3352501,64.3992801 C49.9621708,64.3992801 64.2516133,50.0999281 64.2516133,32.4607835 C64.2516133,14.821639 49.9621708,0.522286981 32.3352501,0.522286981 C14.7083295,0.522286981 0.418886973,14.821639 0.418886973,32.4607835 C0.418886973,50.0999281 14.7083295,64.3992801 32.3352501,64.3992801 Z" id="Oval-4"></path>
            </g>
            <g id="Group-Copy-5" transform="translate(1033.000000, 2471.000000)" stroke="#787878" fill="#FFFFFF">
                <path d="M32.2099632,64.149757 C49.7685861,64.149757 64.0026624,49.9058097 64.0026624,32.3350102 C64.0026624,14.7642107 49.7685861,0.520263314 32.2099632,0.520263314 C14.6513402,0.520263314 0.417263943,14.7642107 0.417263943,32.3350102 C0.417263943,49.9058097 14.6513402,64.149757 32.2099632,64.149757 Z" id="Oval-4"></path>
            </g>
            <g id="Group-Copy-10" transform="translate(882.000000, 2434.000000)" stroke="#787878" fill="#FFFFFF">
                <path d="M35.0827874,69.871309 C54.2074736,69.871309 69.7110949,54.3569362 69.7110949,35.2189874 C69.7110949,16.0810387 54.2074736,0.566665885 35.0827874,0.566665885 C15.9581013,0.566665885 0.454479943,16.0810387 0.454479943,35.2189874 C0.454479943,54.3569362 15.9581013,69.871309 35.0827874,69.871309 Z" id="Oval-4"></path>
            </g>
            <g id="Group-Copy-4" transform="translate(578.000000, 2459.000000)" stroke="#787878" fill="#FFFFFF">
                <path d="M27.1876529,54.1472625 C42.008463,54.1472625 54.0231034,42.1242901 54.0231034,27.2932021 C54.0231034,12.4621141 42.008463,0.439141714 27.1876529,0.439141714 C12.3668429,0.439141714 0.352202429,12.4621141 0.352202429,27.2932021 C0.352202429,42.1242901 12.3668429,54.1472625 27.1876529,54.1472625 Z" id="Oval-4"></path>
            </g>
            <g id="Group-Copy-9" transform="translate(480.500000, 2462.500000)" stroke="#787878" fill="#FFFFFF">
                <path d="M24.6018213,48.9972886 C38.0130166,48.9972886 48.8849384,38.1178273 48.8849384,24.6973317 C48.8849384,11.276836 38.0130166,0.39737472 24.6018213,0.39737472 C11.1906261,0.39737472 0.318704276,11.276836 0.318704276,24.6973317 C0.318704276,38.1178273 11.1906261,48.9972886 24.6018213,48.9972886 Z" id="Oval-4"></path>
            </g>
            <path d="M618.462795,2485.69541 C618.943733,2485.9733 618.941922,2486.42485 618.462795,2486.70165 L597.637716,2498.73251 C597.156778,2499.01035 596.766901,2498.78299 596.766901,2498.24521 L596.766901,2474.14982 C596.766901,2473.60285 597.158589,2473.38576 597.637716,2473.6626 L618.462795,2485.69541 Z" id="Stroke-3" stroke="#787878"></path>
            <path d="M819.331823,2496.40343 C819.556011,2495.77043 818.687353,2495.05507 819.050924,2493.88563 C819.091441,2491.91042 817.976236,2485.80992 824.986654,2483.25657 C832.298468,2480.59344 836.133744,2487.66368 836.133744,2487.66368 C836.133744,2487.66368 838.086221,2488.54431 838.010048,2490.65798 C837.474839,2491.35086 842.268815,2493.02568 843,2497.78202 C842.556519,2499.57833 840.268933,2497.91727 840.268933,2497.91727 C840.268933,2497.91727 840.211561,2500.44129 839.805751,2501.23384 C839.248994,2502.32118 841.809315,2501.03053 842.629646,2502.23407 C843.494843,2504.61283 838.001988,2507.43499 833.179678,2506.95601 C827.290667,2512.25143 819.846683,2511.26349 823.98225,2507.44373 C824.621899,2506.85293 822.856315,2506.49641 821.653685,2504.69737 C821.415865,2505.30118 820.806889,2508.15365 818.738359,2506.27638 C816.65666,2502.54837 819.6379,2497.85408 819.6379,2497.85408 C819.6379,2497.85408 819.107636,2497.03642 819.331823,2496.40343" id="Path-9" stroke="#8DC6FB" fill="#FFFFFF"></path>
            <g id="Group-Copy-6" transform="translate(1197.638659, 2463.000000)" stroke="#787878" fill="#FFFFFF">
                <path d="M21.6273691,43.0733331 C33.4171006,43.0733331 42.9745664,33.5092394 42.9745664,21.7113319 C42.9745664,9.91342435 33.4171006,0.34933063 21.6273691,0.34933063 C9.83763753,0.34933063 0.280171736,9.91342435 0.280171736,21.7113319 C0.280171736,33.5092394 9.83763753,43.0733331 21.6273691,43.0733331 Z" id="Oval-4"></path>
            </g>
            <g id="Group-Copy-8" transform="translate(1292.000000, 2463.000000)" stroke="#787878" fill="#FFFFFF">
                <path d="M27.6629139,55.0937981 C42.7428031,55.0937981 54.9674687,42.860655 54.9674687,27.7703082 C54.9674687,12.6799614 42.7428031,0.446818248 27.6629139,0.446818248 C12.5830248,0.446818248 0.358359198,12.6799614 0.358359198,27.7703082 C0.358359198,42.860655 12.5830248,55.0937981 27.6629139,55.0937981 Z" id="Oval-4"></path>
            </g>
            <g id="Group-66" transform="translate(494.000000, 2476.000000)" stroke="#787878">
                <path d="M24.1282469,19.3169157 C24.1282469,20.1497922 23.4321128,20.8305086 22.5810398,20.8305086 L1.68283319,20.8305086 C0.83230575,20.8305086 0.13617168,20.1497922 0.13617168,19.3169157 L0.13617168,1.11269099 C0.13617168,0.280348371 0.83230575,0.13352719 1.68283319,0.13352719 L6.48157557,0.13352719 C7.33210301,0.13352719 10.1564651,2.8030032 11.0069926,2.8030032 L22.5810398,2.8030032 C23.4321128,2.8030032 24.1282469,3.48371958 24.1282469,4.31606221 L24.1282469,19.3169157 L24.1282469,19.3169157 Z" id="Stroke-1"></path>
                <path d="M24.1282469,19.3169157 C24.1282469,20.1497922 23.4321128,20.8305086 22.5810398,20.8305086 L1.68283319,20.8305086 C0.83230575,20.8305086 0.13617168,20.1497922 0.13617168,19.3169157 L0.13617168,1.11269099 C0.13617168,0.280348371 0.83230575,0.13352719 1.68283319,0.13352719 L6.48157557,0.13352719 C7.33210301,0.13352719 10.1564651,2.8030032 11.0069926,2.8030032 L22.5810398,2.8030032 C23.4321128,2.8030032 24.1282469,3.48371958 24.1282469,4.31606221 L24.1282469,19.3169157 L24.1282469,19.3169157 Z" id="Stroke-3"></path>
                <path d="M0.286909802,8.00842804 L23.9772906,8.00842804" id="Stroke-5"></path>
            </g>
            <g id="Group-65" transform="translate(900.000000, 2450.000000)" stroke="#787878">
                <path d="M25.284871,38.197134 L20.5195955,38.197134 L2.59308306,38.197134 C1.28200198,38.197134 0.210445322,37.1234215 0.210445322,35.8097026 L0.210445322,2.59703694 C0.210445322,1.28416019 1.28200198,0.210447657 2.59308306,0.210447657 L30.6048346,0.210447657 C31.9159157,0.210447657 32.9866319,1.28416019 32.9866319,2.59703694 L32.9866319,24.0199179 L32.9866319,28.7939386 L25.284871,38.197134 L25.284871,38.197134 Z" id="Stroke-1"></path>
                <path d="M24.5125938,38.1979762 L24.5125938,30.7948335 C24.5125938,29.4811146 25.5849909,28.4074021 26.8952315,28.4074021 L32.9875564,28.4074021" id="Stroke-3"></path>
                <polygon id="Stroke-5" points="7.70428222 9.95504158 25.4938035 9.95504158"></polygon>
                <polygon id="Stroke-7" points="7.70428222 15.8499339 25.4938035 15.8499339"></polygon>
                <polygon id="Stroke-9" points="7.70428222 21.5347155 19.5401507 21.5347155"></polygon>
            </g>
            <g id="Group-64" transform="translate(1304.000000, 2473.000000)" stroke="#787878">
                <path d="M23.4848545,8.75752489 C23.4848545,13.4919599 19.6974324,17.3303921 15.0259148,17.3303921 C10.3543971,17.3303921 6.56697505,13.4919599 6.56697505,8.75752489 C6.56697505,4.02308986 10.3543971,0.184657715 15.0259148,0.184657715 C19.6974324,0.184657715 23.4848545,4.02308986 23.4848545,8.75752489 L23.4848545,8.75752489 Z" id="Stroke-1"></path>
                <path d="M30.0756237,32.9170076 L30.0756237,23.3308829 C30.0756237,22.1804594 29.147869,21.239472 28.0127339,21.239472 L2.24443867,21.239472 C1.11003119,21.239472 0.181548857,22.1804594 0.181548857,23.3308829 L0.181548857,32.9170076" id="Stroke-3" stroke-linecap="round"></path>
                <path d="M9.56817048,30.0435301 L13.4290852,33.9571822" id="Stroke-5"></path>
                <path d="M13.1471206,33.9568872 L18.664896,28.3647967" id="Stroke-7"></path>
            </g>
            <g id="Group-68" transform="translate(1207.638659, 2475.000000)" stroke="#787878">
                <path d="M22.2390057,17.81854 C22.2390057,18.5732554 21.6221151,19.1900901 20.8684061,19.1900901 L1.49146375,19.1900901 C0.737754842,19.1900901 0.120864162,18.5732554 0.120864162,17.81854 L0.120864162,1.49201426 C0.120864162,0.73778267 0.737754842,0.120947979 1.49146375,0.120947979 L20.8684061,0.120947979 C21.6221151,0.120947979 22.2390057,0.73778267 22.2390057,1.49201426 L22.2390057,17.81854 L22.2390057,17.81854 Z" id="Stroke-1"></path>
                <path d="M0.120864162,11.8930566 C0.120864162,11.8930566 2.01456385,9.47409706 5.7207425,9.47409706 C9.22580318,9.47409706 13.2950578,13.9090175 13.2950578,13.9090175 C13.2950578,13.9090175 17.0587678,18.3032995 22.2390057,13.989327" id="Stroke-3"></path>
                <path d="M19.1673639,5.33516047 C19.1673639,6.5006152 18.2236566,7.44497701 17.059493,7.44497701 C15.8953293,7.44497701 14.9506551,6.5006152 14.9506551,5.33516047 C14.9506551,4.17018954 15.8953293,3.22534394 17.059493,3.22534394 C18.2236566,3.22534394 19.1673639,4.17018954 19.1673639,5.33516047 L19.1673639,5.33516047 Z" id="Stroke-5"></path>
            </g>
            <g id="Group-69" transform="translate(723.000000, 2479.000000)" stroke="#787878">
                <path d="M16.697118,0 L16.697118,0 C11.9131237,0 8,3.90482442 8,8.67669593 L8,18.7913561 C8,23.5632276 11.9131237,27.4680521 16.697118,27.4680521 C21.4811123,27.4680521 25.394236,23.5632276 25.394236,18.7913561 L25.394236,8.67669593 C25.394236,3.90482442 21.4811123,0 16.697118,0 L16.697118,0 Z" id="Stroke-1"></path>
                <path d="M17,41.1275831 L17,36" id="Stroke-3" stroke-linecap="round"></path>
                <path d="M34.6146544,20 C33.955039,28.960376 26.4585993,36.0256982 17.3068815,36.0256982 C8.15783784,36.0256982 0.662289501,28.9630438 0,20.0044464" id="Stroke-5" stroke-linecap="round"></path>
                <path d="M7.79349465,11.560628 L12.2316365,11.560628" id="Stroke-7"></path>
                <path d="M7.79349465,16.0070233 L12.2316365,16.0070233" id="Stroke-9"></path>
                <path d="M21.1640768,11.560628 L25.6022187,11.560628" id="Stroke-11"></path>
                <path d="M21.1640768,16.0070233 L25.6022187,16.0070233" id="Stroke-13"></path>
            </g>
            <g id="Group-70" transform="translate(1151.178980, 2478.990139) rotate(10.000000) translate(-1151.178980, -2478.990139) translate(1141.678980, 2468.490139)" stroke="#8DC6FB" fill="#FFFFFF">
                <polygon id="Path-2" points="9.61500443 -1.36424205e-12 0.361093493 5.11006783 9.58546737 10.2478845 18.9160794 5.13578624"></polygon>
                <polyline id="Path-2" stroke-linecap="round" points="9.46535884 10.3288035 9.43708173 20.5263239 0.368434209 15.489758 0.361093493 5.22792732 9.46535884 10.3288035"></polyline>
                <polyline id="Path-2" stroke-linecap="round" points="9.81181401 10.3288035 9.84009112 20.5263239 18.9087386 15.489758 18.9160794 5.22792732 9.81181401 10.3288035"></polyline>
            </g>
            <g id="Group-72" transform="translate(658.000000, 2468.000000)">
                <path d="M0,13.4109883 C0,17.5158018 5.15861468,20.8440552 11.523897,20.8440552 C17.8886891,20.8440552 22.9992528,17.5158018 22.9992528,13.4109883 C22.9992528,9.94277068 18.6545627,9.94277068 18.6545627,9.71931052 C18.6545627,9.49488509 20.8178369,7.48036517 18.6545627,6.22696118 C17.3581672,5.47549796 15.4160255,5.85919305 14.0951142,6.24385342 C13.212055,6.50013279 12.6055341,6.75641216 12.6530948,6.67436415 C14.3549817,3.74766343 11.9235046,2.82389939 10.6834954,2.82389939 C7.72738022,2.82389939 0,9.30617467 0,13.4109883 L0,13.4109883 Z" id="Combined-Shape" stroke="#8DC6FB" fill="#FFFFFF"></path>
                <path d="M18.3770438,3.66754597 C18.0823639,3.71194842 17.84358,3.98656793 17.84358,4.27952758 L17.84358,4.48657814 C17.84358,4.78002043 18.0818736,5.00010215 18.3902824,4.99141471 C18.3902824,4.99141471 19.863682,4.79401685 20.5800336,5.64490296 C21.2968756,6.49530644 20.7364444,7.8712998 20.7364444,7.8712998 C20.6506391,8.14978039 20.825682,8.37613636 21.1198716,8.37613636 L21.6082263,8.37613636 C21.9063384,8.37613636 22.1951346,8.14543667 22.2436758,7.85006384 C22.2436758,7.85006384 22.8193068,5.64490296 21.475841,4.43590143 C20.6991804,3.73704545 19.7842508,3.58935904 19.1512528,3.58935904 C18.6888848,3.58935904 18.3770438,3.66754597 18.3770438,3.66754597 L18.3770438,3.66754597 Z" id="Path" stroke="#8DC6FB" fill="#FFFFFF"></path>
                <path d="M3.78916208,14.800978 C3.41210907,12.1585495 6.40254638,9.56052349 10.468737,8.99825332 C14.5354179,8.43550051 18.1372793,10.1213458 18.5143323,12.7642569 C18.892366,15.4057201 15.9019286,18.0042288 11.8347574,18.566499 C11.3061967,18.6403422 10.7859715,18.6750919 10.279475,18.6750919 C6.88746891,18.6750919 4.1176738,17.0997702 3.78916208,14.800978 L3.78916208,14.800978 Z" id="Path"></path>
                <path d="M9.64353517,10.5508912 C7.22480632,11.0137385 5.58666055,13.0219842 5.98479715,15.0365041 C6.38293374,17.0515066 8.66584506,18.3102196 11.0840836,17.8468897 C13.5028124,17.3840424 15.1409582,15.3757967 14.7428216,13.3607942 C14.4010714,11.6286159 12.6648624,10.4553294 10.6462314,10.4548468 C10.3177197,10.4548468 9.98234353,10.4862181 9.64353517,10.5508912 L9.64353517,10.5508912 Z" id="Path"></path>
                <path d="M17.9053598,0.0154443309 C17.4611335,0.0246144025 17.100261,0.386590909 17.100261,0.828202247 L17.100261,1.22203269 C17.100261,1.66171348 17.4596626,1.99762768 17.9166371,1.98990552 C17.9166371,1.98990552 21.3866035,1.62744637 22.8644159,3.74766343 C24.341738,5.86884576 23.7038369,8.52913177 23.7038369,8.52913177 C23.635683,8.96398621 23.9421305,9.31631001 24.3942018,9.31631001 L24.7384037,9.31631001 C25.1875331,9.31631001 25.6023405,8.96495148 25.6508818,8.52623596 C25.6508818,8.52623596 26.4461743,4.34613126 23.9838073,2.01741573 C22.059317,0.198363126 19.4302426,0 18.3731213,0 C18.0774608,0 17.9053598,0.0154443309 17.9053598,0.0154443309 L17.9053598,0.0154443309 Z" id="Path" stroke="#8DC6FB" fill="#FFFFFF"></path>
                <path d="M7.61902039,15.4578447 C7.35424975,14.8999183 7.74307034,14.1701736 8.48786035,13.8289505 C9.23216004,13.486762 10.0500071,13.6624413 10.3142875,14.2203677 C10.5785678,14.7792594 10.1897472,15.5080388 9.4454475,15.849262 C9.18754128,15.9679903 8.92179001,16.0244586 8.67172885,16.0244586 C8.20102548,16.0244586 7.79161162,15.8227171 7.61902039,15.4578447 L7.61902039,15.4578447 Z" id="Path"></path>
                <path d="M10.4084281,13.4109883 C10.4084281,13.0002656 10.7413527,12.6677298 11.1517472,12.6677298 C11.5631223,12.6677298 11.8955566,13.0002656 11.8955566,13.4109883 C11.8955566,13.8212283 11.5631223,14.1542467 11.1517472,14.1542467 C10.7413527,14.1542467 10.4084281,13.8212283 10.4084281,13.4109883 L10.4084281,13.4109883 Z" id="Path"></path>
            </g>
            <g id="Group-73" transform="translate(1063.859650, 2502.859650) rotate(-45.000000) translate(-1063.859650, -2502.859650) translate(1041.359650, 2495.859650)" stroke="#787878">
                <use id="Rectangle-49" mask="url(#mask-6)" stroke-width="2" xlink:href="#path-5"></use>
                <use id="Rectangle-49-Copy" mask="url(#mask-8)" stroke-width="2" xlink:href="#path-7"></use>
                <path d="M13.5,7.5 L31.5,7.5" id="Line" stroke-linecap="square"></path>
            </g>
            <g id="Layer_1" opacity="0.215601679" transform="translate(489.660254, 2433.124356) rotate(30.000000) translate(-489.660254, -2433.124356) translate(479.660254, 2419.124356)" stroke="#000000">
                <g id="Group">
                    <path d="M19.7230114,18.2988506 C19.7230114,17.4712644 19.0767045,16.7356322 18.1534091,16.7356322 L17.96875,16.7356322 C17.2301136,16.7356322 16.5838068,17.2873563 16.4914773,18.0229885 L16.4914773,16.6436782 C16.4914773,15.816092 15.8451705,15.0804598 14.921875,15.0804598 L14.7372159,15.0804598 C13.9985795,15.0804598 13.3522727,15.6321839 13.2599432,16.3678161 L13.2599432,14.8965517 C13.2599432,14.0689655 12.6136364,13.3333333 11.6903409,13.3333333 L11.5056818,13.3333333 C10.7670455,13.3333333 10.1207386,13.8850575 10.0284091,14.6206897 L10.0284091,8.36781609 C10.0284091,7.54022989 9.38210227,6.8045977 8.45880682,6.8045977 L8.27414773,6.8045977 C7.44318182,6.8045977 6.70454545,7.44827586 6.70454545,8.36781609 L6.70454545,22.0689655 L4.30397727,19.5862069 C3.75,19.0344828 2.734375,19.0344828 2.18039773,19.5862069 L2.08806818,19.6781609 C1.53409091,20.2298851 1.53409091,21.2413793 2.08806818,21.7931034 L6.796875,27.1264368 C6.98153409,27.4022989 7.35085227,27.5862069 7.72017045,27.5862069 L18.5227273,27.5862069 C19.1690341,27.5862069 19.7230114,27.0344828 19.7230114,26.3908046 L19.7230114,26.3908046 L19.7230114,26.3908046 L19.7230114,18.2988506 L19.7230114,18.2988506 Z" id="Shape"></path>
                    <path d="M3.01136364,7.63218391 L3.01136364,7.63218391 L0.0568181818,7.63218391 L0.0568181818,7.63218391 L3.01136364,7.63218391 L3.01136364,7.63218391 Z" id="Shape"></path>
                    <path d="M8.45880682,0 L8.45880682,0 L8.45880682,2.94252874 L8.45880682,2.94252874 L8.45880682,0 L8.45880682,0 Z" id="Shape"></path>
                    <path d="M5.13494318,4.59770115 L5.13494318,4.59770115 L3.01136364,2.48275862 L3.01136364,2.48275862 L5.13494318,4.59770115 L5.13494318,4.59770115 Z" id="Shape"></path>
                    <path d="M16.8607955,7.63218391 L16.8607955,7.63218391 L13.90625,7.63218391 L13.90625,7.63218391 L16.8607955,7.63218391 L16.8607955,7.63218391 Z" id="Shape"></path>
                    <path d="M13.8139205,2.48275862 L13.8139205,2.48275862 C13.4446023,2.75862069 12.0596591,4.22988506 11.6903409,4.59770115 L11.6903409,4.59770115 L13.8139205,2.48275862 L13.8139205,2.48275862 Z" id="Shape"></path>
                </g>
            </g>
            <g id="个性化服务" transform="translate(1091.000000, 2391.000000)">
                <g id="Group">
                    <g id="XMLID_1_" fill="#777878">
                        <polygon id="XMLID_34_" points="32.4943051 0 0.105615293 12.4285714 0.246435683 12.7738095 32.6351254 0.345238095"></polygon>
                    </g>
                    <g id="XMLID_3_" transform="translate(15.490243, 0.000000)" fill="#777878">
                        <polygon id="XMLID_32_" points="16.9336519 0.069047619 0.0352050976 28.7238095 0.316845878 28.9309524 17.2152927 0.276190476"></polygon>
                    </g>
                    <g id="XMLID_5_" transform="translate(9.857427, 17.607143)" fill="#777878">
                        <polygon id="XMLID_30_" points="0.316845878 0.103571429 0.0352050976 0.241666667 5.66802071 11.2892857 5.94966149 11.1511905"></polygon>
                    </g>
                    <g id="XMLID_7_" transform="translate(0.352051, 12.428571)" fill="#777878">
                        <polygon id="XMLID_28_" points="0.246435683 0.0345238095 0.105615293 0.310714286 9.61099164 5.48928571 9.75181203 5.21309524"></polygon>
                    </g>
                    <g id="XMLID_9_" transform="translate(9.857427, 0.000000)" fill="#787878">
                        <polygon id="XMLID_26_" points="22.2496217 0.379761905 0.0704101951 17.6416667 0.281640781 17.9178571 22.4608523 0.655952381 22.2496217 0.0345238095"></polygon>
                    </g>
                </g>
            </g>
            <path d="M1268.38426,2449.61127 C1266.53129,2449.61127 1264.77234,2450.40807 1263.55815,2451.79896 C1263.36945,2452.01433 1263.39345,2452.34038 1263.61082,2452.52641 C1263.82752,2452.71311 1264.15558,2452.69044 1264.34427,2452.4744 C1265.3611,2451.31088 1266.83334,2450.64344 1268.38426,2450.64344 C1269.98718,2450.64344 1271.49142,2451.34755 1272.51092,2452.57575 C1272.61427,2452.69977 1272.76296,2452.76445 1272.91298,2452.76445 C1273.02967,2452.76445 1273.14702,2452.72577 1273.2437,2452.64643 C1273.46574,2452.4644 1273.49708,2452.13968 1273.31505,2451.91964 C1272.09619,2450.45274 1270.29923,2449.61127 1268.38426,2449.61127 M1268.38426,2444.72649 C1265.38511,2444.72649 1262.49798,2445.98269 1260.46432,2448.17238 C1260.26895,2448.38174 1260.28296,2448.70846 1260.49366,2448.90183 C1260.70502,2449.09519 1261.03508,2449.08119 1261.22911,2448.87182 C1263.06674,2446.8935 1265.67515,2445.75932 1268.38426,2445.75932 C1271.14803,2445.75932 1273.78979,2446.93084 1275.63475,2448.97451 C1275.73744,2449.08852 1275.87946,2449.14653 1276.02215,2449.14653 C1276.14617,2449.14653 1276.27019,2449.10319 1276.36954,2449.01451 C1276.58357,2448.82448 1276.60158,2448.49843 1276.40954,2448.28573 C1274.36855,2446.02403 1271.44275,2444.72649 1268.38426,2444.72649 M1279.29734,2444.87785 C1276.49222,2441.86736 1272.51425,2440.13975 1268.38359,2440.13975 C1264.25226,2440.13975 1260.41431,2441.78268 1257.57719,2444.76516 C1257.37982,2444.9732 1257.38982,2445.29991 1257.59852,2445.49528 C1257.80789,2445.69131 1258.13661,2445.68131 1258.33398,2445.47394 C1260.9724,2442.70016 1264.54097,2441.17259 1268.38359,2441.17259 C1269.23124,2441.17259 1270.07195,2441.25074 1270.89553,2441.40265 C1273.80479,2441.93924 1276.5003,2443.39604 1278.53322,2445.57863 C1278.6359,2445.68864 1278.77526,2445.74465 1278.91528,2445.74465 C1279.0413,2445.74465 1279.16865,2445.69931 1279.268,2445.6073 C1279.47937,2445.41393 1279.49204,2445.08721 1279.29734,2444.87785 L1318.43379,2432.47653 M1268.43226,2453.69126 C1267.38143,2453.69126 1266.52662,2454.5394 1266.52662,2455.58223 C1266.52662,2456.62507 1267.38143,2457.4732 1268.43226,2457.4732 C1269.4831,2457.4732 1270.33857,2456.62507 1270.33857,2455.58223 C1270.33857,2454.5394 1269.4831,2453.69126 1268.43226,2453.69126 M1268.43226,2456.44104 C1267.95485,2456.44104 1267.56679,2456.05564 1267.56679,2455.58223 C1267.56679,2455.10882 1267.95485,2454.72343 1268.43226,2454.72343 C1268.90967,2454.72343 1269.29774,2455.10882 1269.29774,2455.58223 C1269.29774,2456.05564 1268.90967,2456.44104 1268.43226,2456.44104" id="Page-1" fill="#787878" opacity="0.4" transform="translate(1287.934570, 2444.974868) rotate(20.000000) translate(-1287.934570, -2444.974868) "></path>
            <circle id="Oval-40" stroke="#787878" opacity="0.295592351" cx="544.5" cy="2529.5" r="5.5"></circle>
        </g>
    </g>
</svg>