<?xml version="1.0" encoding="UTF-8" standalone="no"?>
<svg width="744px" height="209px" viewBox="0 0 744 209" version="1.1" xmlns="http://www.w3.org/2000/svg" xmlns:xlink="http://www.w3.org/1999/xlink">
    <!-- Generator: Sketch 39 (31667) - http://www.bohemiancoding.com/sketch -->
    <title>v copy 2</title>
    <desc>Created with Sketch.</desc>
    <defs>
        <path d="M-5.78204151e-13,3.00461047 C-5.78204151e-13,1.34520993 1.34761846,-1.52944324e-12 2.99621188,-1.52944324e-12 L15.5497281,-1.52944324e-12 C16.6518615,-1.52944324e-12 18.1594198,0.653729133 18.9145242,1.45755845 L21.4397051,4.14568272 C22.1958973,4.95067003 22.2355953,6.28984162 21.521292,7.14528655 L18.8329373,10.3648421 C18.1218043,11.2164903 16.6511208,11.9068875 15.5497281,11.9068875 L2.99621188,11.9068875 C1.34144975,11.9068875 -5.78204151e-13,10.5641616 -5.78204151e-13,8.90227703 L-5.78204151e-13,3.00461047 Z" id="path-1"></path>
        <mask id="mask-2" maskContentUnits="userSpaceOnUse" maskUnits="objectBoundingBox" x="0" y="0" width="22.0328719" height="11.9068875" fill="white">
            <use xlink:href="#path-1"></use>
        </mask>
        <path d="M4.04939669,14.2649945 L1.90417597,14.2649945 C0.933764294,14.2649945 0.147090195,13.4837504 0.147090195,12.5144901 L0.147090195,4.10861143 L0.147090195,4.10861143 C0.147090195,3.14183455 0.935061246,2.35810703 1.9016331,2.35810703 L16.9937829,2.35810703 C17.3796225,2.35810703 17.9052656,2.58470057 18.1734699,2.87021138" id="path-3"></path>
        <mask id="mask-4" maskContentUnits="userSpaceOnUse" maskUnits="objectBoundingBox" x="0" y="0" width="18.0263797" height="11.9068875" fill="white">
            <use xlink:href="#path-3"></use>
        </mask>
        <path d="M-1.22568622e-13,10.5878136 C-1.22568622e-13,7.86597438 -1.22568622e-13,3.45478865 -1.22568622e-13,0.731161794 L-1.22568622e-13,5.65948771 C-1.22568622e-13,2.93764846 2.19668975,0.731161794 4.55343178,0.731161794 L-1.22568622e-13,0.731161794 C2.51479093,0.731161794 5.05367362,0.731161794 5.05367362,0.731161794 L4.55343178,0.731161794 C4.82970772,0.731161794 7.26101407,0.731161794 9.97520782,0.731161794 L11.5804034,0.731161794 C14.2984917,0.731161794 16.5019376,2.94318686 16.5019376,5.65948771 L16.5019376,5.65948771 C16.5019376,8.38132695 14.2893066,10.5878136 11.5747983,10.5878136 L9.81093217,10.5878136 C7.08974825,10.5878136 4.1286179,10.5878136 4.1286179,10.5878136 L4.88379284,10.5878136 C4.46672124,10.5878136 1.91926854,10.5878136 -1.22568622e-13,10.5878136 L4.1286179,10.5878136 C1.8484452,10.5878136 -1.22568622e-13,8.38311456 -1.22568622e-13,5.65948771 L-1.22568622e-13,10.5878136 Z" id="path-5"></path>
        <mask id="mask-6" maskContentUnits="userSpaceOnUse" maskUnits="objectBoundingBox" x="0" y="0" width="16.5019376" height="9.85665183" fill="white">
            <use xlink:href="#path-5"></use>
        </mask>
        <path d="M17.4372711,10.5878136 C17.4372711,7.86597438 17.4372711,3.45478865 17.4372711,0.731161794 L17.4372711,5.65948771 C17.4372711,2.93764846 19.6339608,0.731161794 21.9907028,0.731161794 L17.4372711,0.731161794 C19.952062,0.731161794 22.4909447,0.731161794 22.4909447,0.731161794 L21.9907028,0.731161794 C22.2669788,0.731161794 24.6982851,0.731161794 27.4124789,0.731161794 L29.0176744,0.731161794 C31.7357627,0.731161794 33.9392086,2.94318686 33.9392086,5.65948771 L33.9392086,5.65948771 C33.9392086,8.38132695 31.7265777,10.5878136 29.0120693,10.5878136 L27.2482032,10.5878136 C24.5270193,10.5878136 21.565889,10.5878136 21.565889,10.5878136 L22.3210639,10.5878136 C21.9039923,10.5878136 19.3565396,10.5878136 17.4372711,10.5878136 L21.565889,10.5878136 C19.2857163,10.5878136 17.4372711,8.38311456 17.4372711,5.65948771 L17.4372711,10.5878136 Z" id="path-7"></path>
        <mask id="mask-8" maskContentUnits="userSpaceOnUse" maskUnits="objectBoundingBox" x="0" y="0" width="16.5019376" height="9.85665183" fill="white">
            <use xlink:href="#path-7"></use>
        </mask>
    </defs>
    <g id="Page-1" stroke="none" stroke-width="1" fill="none" fill-rule="evenodd">
        <g id="v" transform="translate(-652.000000, -2782.000000)">
            <path d="" id="Path-2-Copy-7" stroke="#979797" stroke-width="3" fill="#D8D8D8"></path>
            <g id="Group-Copy-11" opacity="0.4" transform="translate(828.374048, 2796.949080) rotate(-4.000000) translate(-828.374048, -2796.949080) translate(813.874048, 2786.949080)" stroke="#787878">
                <g id="Group" transform="translate(16.072265, 9.846308) rotate(-20.000000) translate(-16.072265, -9.846308) translate(4.572265, 3.846308)">
                    <use id="Rectangle-4" mask="url(#mask-2)" stroke-width="2" xlink:href="#path-1"></use>
                    <ellipse id="Oval-3" cx="16.6680512" cy="5.77834246" rx="1.75453171" ry="1.75101287"></ellipse>
                </g>
                <use id="Rectangle-4" mask="url(#mask-4)" stroke-width="2" xlink:href="#path-3"></use>
            </g>
            <ellipse id="Oval-40-Copy-2" stroke="#787878" opacity="0.295592351" cx="1360.71526" cy="2825.68253" rx="4.16785714" ry="4.15949821"></ellipse>
            <ellipse id="Oval-40-Copy-3" stroke="#787878" opacity="0.295592351" cx="1354.27403" cy="2820.01049" rx="1.51558442" ry="1.5125448"></ellipse>
            <g id="Group-67-Copy" opacity="0.446187034" transform="translate(1076.630598, 2902.283245) rotate(10.000000) translate(-1076.630598, -2902.283245) translate(1069.130598, 2893.783245)" stroke="#787878">
                <path d="M14.2708092,15.5845185 C14.2708092,16.1487635 13.8115113,16.6099253 13.2503472,16.6099253 L1.11026978,16.6099253 C0.549105706,16.6099253 0.0901678003,16.1487635 0.0901678003,15.5845185 L0.0901678003,1.11597528 C0.0901678003,0.55173031 0.549105706,0.0909302478 1.11026978,0.0909302478 L13.2503472,0.0909302478 C13.8115113,0.0909302478 14.2708092,0.55173031 14.2708092,1.11597528 L14.2708092,15.5845185 L14.2708092,15.5845185 Z" id="Stroke-1"></path>
                <path d="M8.25491922,7.85274957 C8.72858284,8.12756969 8.72789794,8.57350252 8.25491922,8.84788098 L6.10576978,10.0946185 C5.63210616,10.3693943 5.24812593,10.1458139 5.24812593,9.59701269 L5.24812593,7.10333644 C5.24812593,6.55374054 5.63279106,6.33138814 6.10576978,6.60581087 L8.25491922,7.85274957 Z" id="Stroke-3"></path>
                <path d="M12.3160216,16.6056934 C12.3160216,16.6082253 12.3142219,16.6100338 12.3120622,16.6100338 L2.04913075,16.6100338 C2.04661109,16.6100338 2.04481134,16.6082253 2.04481134,16.6056934 L2.04481134,0.0950174069 C2.04481134,0.0924855384 2.04661109,0.0903153654 2.04913075,0.0903153654 L12.3120622,0.0903153654 C12.3142219,0.0903153654 12.3160216,0.0924855384 12.3160216,0.0950174069 L12.3160216,16.6056934 L12.3160216,16.6056934 Z" id="Stroke-5"></path>
                <path d="M0.0899878247,3.25525947 L2.04488333,3.25525947" id="Stroke-7"></path>
                <path d="M0.0899878247,6.51051893 L2.04488333,6.51051893" id="Stroke-9"></path>
                <path d="M0.0899878247,10.1274739 L2.04488333,10.1274739" id="Stroke-11"></path>
                <path d="M0.0899878247,13.3827334 L2.04488333,13.3827334" id="Stroke-13"></path>
                <path d="M12.3160216,3.25525947 L14.2709171,3.25525947" id="Stroke-15"></path>
                <path d="M12.3160216,6.51051893 L14.2709171,6.51051893" id="Stroke-17"></path>
                <path d="M12.3160216,10.1274739 L14.2709171,10.1274739" id="Stroke-19"></path>
                <path d="M12.3160216,13.3827334 L14.2709171,13.3827334" id="Stroke-21"></path>
            </g>
            <path d="M653.316234,2860.44706 C653.316234,2860.44706 660.952639,2860.85557 668.921987,2858.98658 C678.039608,2856.8483 688.066044,2852.3079 700.027241,2852.3079 C722.443244,2852.3079 729.656611,2864.74437 749.581947,2864.74437 C769.507282,2864.74437 803.131286,2847.78331 828.868178,2847.78331 C854.60507,2847.78331 870.794405,2874.38133 919.777522,2872.83942 C968.760639,2871.2975 979.96864,2838.9173 1018.98909,2838.9173 C1058.00954,2838.9173 1077.51976,2863.55372 1120.69132,2869.16026 C1163.86288,2874.76681 1183.78822,2847.01235 1222.39356,2848.55426 C1260.9989,2850.09618 1274.50113,2866.59517 1298.09755,2864.74437 C1311.58842,2863.30856 1328.61045,2852.3079 1345.64359,2852.3079 C1357.53214,2852.3079 1371.34732,2860.50245 1395.9526,2860.50245" id="Path-63-Copy" stroke="#CACACA"></path>
            <path d="M653.954494,2861.20333 C653.954494,2861.20333 661.586659,2861.61184 669.551582,2859.74285 C678.664139,2857.60457 688.685007,2853.06417 700.639563,2853.06417 C723.043118,2853.06417 730.25248,2865.50064 750.166751,2865.50064 C770.081022,2865.50064 803.686355,2848.53958 829.408955,2848.53958 C855.131555,2848.53958 871.311901,2875.1376 920.267817,2873.59569 C969.223734,2872.05378 980.425512,2839.67357 1019.42429,2839.67357 C1058.42307,2839.67357 1077.92246,2864.30999 1121.07005,2869.91654 C1164.21764,2875.52308 1184.13191,2847.76862 1222.71581,2849.31054 C1261.29971,2850.85245 1274.79445,2867.35144 1298.37777,2865.50064 C1311.86114,2864.06483 1328.87372,2853.06417 1345.89741,2853.06417 C1357.77935,2853.06417 1371.58686,2861.25872 1396.17847,2861.25872 L1667.49705,2861.25872 L1667.49705,2993.72212 L501,2993.72212 L501,2861.25872" id="v-copy-3" fill="#F5F5F5"></path>
            <path d="M1085.48447,2854.42987 C1084.88751,2851.60401 1081.91432,2849.50511 1078.52014,2849.50511 C1074.72575,2849.50511 1071.61753,2852.13231 1071.61753,2855.46907 C1071.61753,2857.3954 1072.65137,2858.97718 1074.37992,2860.20387 L1073.68948,2862.31332 L1076.10237,2861.08415 C1076.96573,2861.25797 1077.65862,2861.43614 1078.52014,2861.43614 C1078.73644,2861.43614 1079.46444,2861.45352 1079.67769,2861.43614 C1079.54265,2860.96744 1079.45379,2860.3183 1079.45379,2859.80863 C1079.45379,2856.74501 1081.54099,2854.38827 1084.81968,2854.38827 C1085.04393,2854.38827 1085.26511,2854.40503 1085.48447,2854.42987 Z" id="Fill-1-Copy" stroke="#8DC6FB" fill="#FFFFFF"></path>
            <path d="M1090.92934,2859.13263 C1090.92934,2856.32851 1088.16818,2854.04274 1085.06606,2854.04274 C1081.78187,2854.04274 1079.19545,2856.32851 1079.19545,2859.13263 C1079.19545,2861.9411 1081.78187,2864.2219 1085.06606,2864.2219 C1085.75345,2864.2219 1086.44695,2864.04559 1087.1374,2863.86991 L1089.03093,2864.92339 L1088.51157,2863.17027 C1089.89734,2862.1143 1090.92934,2860.71379 1090.92934,2859.13263" id="Fill-3-Copy" stroke="#8DC6FB" stroke-linecap="round" fill="#FFFFFF"></path>
            <g id="Group-Copy-12" transform="translate(867.771429, 2840.429841)" stroke="#787878" fill="#FFFFFF">
                <path d="M24.5034006,48.7033982 C37.8609437,48.7033982 48.6893719,37.8891929 48.6893719,24.5491947 C48.6893719,11.2091965 37.8609437,0.394991229 24.5034006,0.394991229 C11.1458575,0.394991229 0.317429284,11.2091965 0.317429284,24.5491947 C0.317429284,37.8891929 11.1458575,48.7033982 24.5034006,48.7033982 Z" id="Oval-4"></path>
            </g>
            <g id="Group-Copy-13" transform="translate(1114.811688, 2843.454931)" stroke="#787878" fill="#FFFFFF">
                <path d="M24.4084591,48.5146908 C37.7142467,48.5146908 48.5007188,37.7423865 48.5007188,24.4540758 C48.5007188,11.1657651 37.7142467,0.393460786 24.4084591,0.393460786 C11.1026715,0.393460786 0.316199365,11.1657651 0.316199365,24.4540758 C0.316199365,37.7423865 11.1026715,48.5146908 24.4084591,48.5146908 Z" id="Oval-4"></path>
            </g>
            <g id="Group-Copy-14" transform="translate(1000.385065, 2815.472852)" stroke="#787878" fill="#FFFFFF">
                <path d="M26.5854629,52.8417427 C41.0780011,52.8417427 52.8265245,41.1086507 52.8265245,26.6351482 C52.8265245,12.1616458 41.0780011,0.428553769 26.5854629,0.428553769 C12.0929248,0.428553769 0.34440136,12.1616458 0.34440136,26.6351482 C0.34440136,41.1086507 12.0929248,52.8417427 26.5854629,52.8417427 Z" id="Oval-4"></path>
            </g>
            <g id="Group-Copy-15" transform="translate(770.016234, 2834.379662)" stroke="#787878" fill="#FFFFFF">
                <path d="M20.6025915,40.9500802 C31.8336859,40.9500802 40.9382868,31.857438 40.9382868,20.6410955 C40.9382868,9.42475294 31.8336859,0.332110758 20.6025915,0.332110758 C9.37149716,0.332110758 0.266896257,9.42475294 0.266896257,20.6410955 C0.266896257,31.857438 9.37149716,40.9500802 20.6025915,40.9500802 Z" id="Oval-4"></path>
            </g>
            <g id="Group-Copy-16" transform="translate(696.510390, 2836.648479)" stroke="#787878" fill="#FFFFFF">
                <path d="M18.6430685,37.0552971 C28.8059677,37.0552971 37.0446254,28.8274608 37.0446254,18.6779103 C37.0446254,8.52835986 28.8059677,0.300523534 18.6430685,0.300523534 C8.48016926,0.300523534 0.241511617,8.52835986 0.241511617,18.6779103 C0.241511617,28.8274608 8.48016926,37.0552971 18.6430685,37.0552971 Z" id="Oval-4"></path>
            </g>
            <path d="M800.643616,2854.03646 C801.124957,2854.31402 801.125855,2854.76349 800.643616,2855.04152 L785.285831,2863.89608 C784.80449,2864.1736 784.414286,2863.94962 784.414286,2863.39351 L784.414286,2845.68297 C784.414286,2845.12788 784.803592,2844.90239 785.285831,2845.18047 L800.643616,2854.03646 Z" id="Stroke-3-Copy" stroke="#787878"></path>
            <path d="M952.895609,2862.17003 C953.065497,2861.69132 952.407234,2861.15031 952.682746,2860.2659 C952.713449,2858.7721 951.868356,2854.15846 957.180795,2852.22743 C962.721631,2850.21338 965.627973,2855.56041 965.627973,2855.56041 C965.627973,2855.56041 967.107545,2856.2264 967.049822,2857.82492 C966.644245,2858.34892 970.277082,2859.61554 970.831169,2863.21263 C970.495102,2864.57113 968.761587,2863.31491 968.761587,2863.31491 C968.761587,2863.31491 968.718112,2865.22376 968.410592,2865.82314 C967.988686,2866.64547 969.928877,2865.66938 970.550517,2866.57959 C971.206157,2868.37858 967.043714,2870.5129 963.389406,2870.15067 C958.926759,2874.15544 953.285765,2873.40829 956.419666,2870.51951 C956.904387,2870.07271 955.566442,2869.80308 954.655098,2868.44251 C954.474879,2868.89916 954.013402,2871.05641 952.445886,2869.63668 C950.868391,2866.81728 953.127552,2863.26713 953.127552,2863.26713 C953.127552,2863.26713 952.725721,2862.64875 952.895609,2862.17003" id="Path-9-Copy" stroke="#8DC6FB" fill="#FFFFFF"></path>
            <g id="Group-Copy-17" transform="translate(1239.847403, 2837.404752)" stroke="#787878" fill="#FFFFFF">
                <path d="M16.3890518,32.575173 C25.3232185,32.575173 32.5657916,25.3421129 32.5657916,16.4196811 C32.5657916,7.49724924 25.3232185,0.264189114 16.3890518,0.264189114 C7.45488507,0.264189114 0.212311959,7.49724924 0.212311959,16.4196811 C0.212311959,25.3421129 7.45488507,32.575173 16.3890518,32.575173 Z" id="Oval-4"></path>
            </g>
            <g id="Group-Copy-18" transform="translate(1311.079870, 2837.404752)" stroke="#787878" fill="#FFFFFF">
                <path d="M20.9627406,41.665919 C32.3901631,41.665919 41.6539194,32.4143305 41.6539194,21.0019177 C41.6539194,9.58950484 32.3901631,0.337916309 20.9627406,0.337916309 C9.53531811,0.337916309 0.271561808,9.58950484 0.271561808,21.0019177 C0.271561808,32.4143305 9.53531811,41.665919 20.9627406,41.665919 Z" id="Oval-4"></path>
            </g>
            <g id="Group-66-Copy" transform="translate(706.361688, 2847.236293)" stroke="#787878">
                <path d="M18.2841975,14.6088502 C18.2841975,15.2387318 17.7566725,15.7535388 17.111736,15.7535388 L1.27523788,15.7535388 C0.630714812,15.7535388 0.103189838,15.2387318 0.103189838,14.6088502 L0.103189838,0.841497488 C0.103189838,0.212019736 0.630714812,0.100982929 1.27523788,0.100982929 L4.91168746,0.100982929 C5.55621053,0.100982929 7.69649015,2.11983396 8.34101321,2.11983396 L17.111736,2.11983396 C17.7566725,2.11983396 18.2841975,2.63464098 18.2841975,3.26411873 L18.2841975,14.6088502 L18.2841975,14.6088502 Z" id="Stroke-1"></path>
                <path d="M18.2841975,14.6088502 C18.2841975,15.2387318 17.7566725,15.7535388 17.111736,15.7535388 L1.27523788,15.7535388 C0.630714812,15.7535388 0.103189838,15.2387318 0.103189838,14.6088502 L0.103189838,0.841497488 C0.103189838,0.212019736 0.630714812,0.100982929 1.27523788,0.100982929 L4.91168746,0.100982929 C5.55621053,0.100982929 7.69649015,2.11983396 8.34101321,2.11983396 L17.111736,2.11983396 C17.7566725,2.11983396 18.2841975,2.63464098 18.2841975,3.26411873 L18.2841975,14.6088502 L18.2841975,14.6088502 Z" id="Stroke-3"></path>
                <path d="M0.217418012,6.0565531 L18.169804,6.0565531" id="Stroke-5"></path>
            </g>
            <g id="Group-65-Copy" transform="translate(1014.025325, 2827.573211)" stroke="#787878">
                <path d="M19.1606782,28.8874383 L15.5495896,28.8874383 L1.96501813,28.8874383 C0.971491107,28.8874383 0.159473825,28.0754191 0.159473825,27.0818898 L0.159473825,1.96406736 C0.159473825,0.971174914 0.971491107,0.159155755 1.96501813,0.159155755 L23.1921052,0.159155755 C24.1856322,0.159155755 24.9970126,0.971174914 24.9970126,1.96406736 L24.9970126,18.165601 L24.9970126,21.7760611 L19.1606782,28.8874383 L19.1606782,28.8874383 Z" id="Stroke-1"></path>
                <path d="M18.5754526,28.8880752 L18.5754526,23.2892827 C18.5754526,22.2957533 19.3881067,21.4837342 20.3809969,21.4837342 L24.9977132,21.4837342" id="Stroke-3"></path>
                <polygon id="Stroke-5" points="5.83824504 7.5287232 19.3190057 7.5287232"></polygon>
                <polygon id="Stroke-7" points="5.83824504 11.9868676 19.3190057 11.9868676"></polygon>
                <polygon id="Stroke-9" points="5.83824504 16.286111 14.807374 16.286111"></polygon>
            </g>
            <g id="Group-64-Copy" transform="translate(1320.173377, 2844.967476)" stroke="#787878">
                <path d="M17.7966397,6.62307438 C17.7966397,10.2035969 14.9265608,13.1064972 11.3865211,13.1064972 C7.84648143,13.1064972 4.97640252,10.2035969 4.97640252,6.62307438 C4.97640252,3.04255183 7.84648143,0.139651534 11.3865211,0.139651534 C14.9265608,0.139651534 17.7966397,3.04255183 17.7966397,6.62307438 L17.7966397,6.62307438 Z" id="Stroke-1"></path>
                <path d="M22.7910733,24.8942244 L22.7910733,17.6445028 C22.7910733,16.7744693 22.088028,16.0628265 21.2278315,16.0628265 L1.70081813,16.0628265 C0.841172982,16.0628265 0.137576309,16.7744693 0.137576309,17.6445028 L0.137576309,24.8942244" id="Stroke-3" stroke-linecap="round"></path>
                <path d="M7.25068503,22.7210926 L10.1764562,25.6808797" id="Stroke-5"></path>
                <path d="M9.96278553,25.6806566 L14.1441128,21.4515129" id="Stroke-7"></path>
            </g>
            <g id="Group-68-Copy" transform="translate(1247.425325, 2846.480021)" stroke="#787878">
                <path d="M16.8525453,13.47567 C16.8525453,14.0464405 16.3850703,14.5129355 15.8139156,14.5129355 L1.13021961,14.5129355 C0.559064871,14.5129355 0.0915899199,14.0464405 0.0915899199,13.47567 L0.0915899199,1.12836921 C0.0915899199,0.557964671 0.559064871,0.0914696182 1.13021961,0.0914696182 L15.8139156,0.0914696182 C16.3850703,0.0914696182 16.8525453,0.557964671 16.8525453,1.12836921 L16.8525453,13.47567 L16.8525453,13.47567 Z" id="Stroke-1"></path>
                <path d="M0.0915899199,8.9943905 C0.0915899199,8.9943905 1.52662078,7.16499814 4.33513409,7.16499814 C6.99124176,7.16499814 10.0748912,10.5190061 10.0748912,10.5190061 C10.0748912,10.5190061 12.9270013,13.8422803 16.8525453,10.5797419" id="Stroke-3"></path>
                <path d="M14.524879,4.03483462 C14.524879,4.91623587 13.8097449,5.63043065 12.9275508,5.63043065 C12.0453567,5.63043065 11.3294899,4.91623587 11.3294899,4.03483462 C11.3294899,3.15379926 12.0453567,2.4392386 12.9275508,2.4392386 C13.8097449,2.4392386 14.524879,3.15379926 14.524879,4.03483462 L14.524879,4.03483462 Z" id="Stroke-5"></path>
            </g>
            <g id="Group-69-Copy" transform="translate(879.896104, 2849.505110)" stroke="#787878">
                <path d="M12.6529459,0 L12.6529459,0 C9.02767231,0 6.06233766,2.95311094 6.06233766,6.56194567 L6.06233766,14.211384 C6.06233766,17.8202188 9.02767231,20.7733297 12.6529459,20.7733297 C16.2782195,20.7733297 19.2435541,17.8202188 19.2435541,14.211384 L19.2435541,6.56194567 C19.2435541,2.95311094 16.2782195,0 12.6529459,0 L12.6529459,0 Z" id="Stroke-1"></path>
                <path d="M12.8824675,31.1036561 L12.8824675,27.2258065" id="Stroke-3" stroke-linecap="round"></path>
                <path d="M26.2307154,15.125448 C25.730864,21.9019331 20.0501204,27.2452413 13.1150199,27.2452413 C6.18194595,27.2452413 0.501877823,21.9039507 0,15.1288107" id="Stroke-5" stroke-linecap="round"></path>
                <path d="M5.90584952,8.74298388 L9.26903886,8.74298388" id="Stroke-7"></path>
                <path d="M5.90584952,12.10567 L9.26903886,12.10567" id="Stroke-9"></path>
                <path d="M16.0379725,8.74298388 L19.4011618,8.74298388" id="Stroke-11"></path>
                <path d="M16.0379725,12.10567 L19.4011618,12.10567" id="Stroke-13"></path>
            </g>
            <g id="Group-70-Copy-2" transform="translate(1204.652887, 2849.608046) rotate(10.000000) translate(-1204.652887, -2849.608046) translate(1197.152887, 2841.608046)" stroke="#8DC6FB" fill="#FFFFFF">
                <polygon id="Path-2" points="7.28617543 -1.85362836e-12 0.273633835 3.86460327 7.26379248 7.7501922 14.3344575 3.88405339"></polygon>
                <polyline id="Path-2" stroke-linecap="round" points="7.17277517 7.81138901 7.151347 15.5234923 0.279196573 11.7144764 0.273633835 3.95373715 7.17277517 7.81138901"></polyline>
                <polyline id="Path-2" stroke-linecap="round" points="7.4353162 7.81138901 7.45674438 15.5234923 14.3288948 11.7144764 14.3344575 3.95373715 7.4353162 7.81138901"></polyline>
            </g>
            <g id="Group-72-Copy-2" transform="translate(830.639610, 2841.186114)">
                <path d="M0,10.1423603 C0,13.2467175 3.90915801,15.7637837 8.73271938,15.7637837 C13.5559092,15.7637837 17.4286546,13.2467175 17.4286546,10.1423603 C17.4286546,7.51944306 14.1362822,7.51944306 14.1362822,7.35044631 C14.1362822,7.18071955 15.7755946,5.65719373 14.1362822,4.70927889 C13.1538838,4.14096799 11.682144,4.431146 10.6811677,4.72205402 C10.0119924,4.91587103 9.55237555,5.10968805 9.58841664,5.0476374 C10.8780932,2.83425442 9.03553887,2.13563717 8.09586958,2.13563717 C5.85574852,2.13563717 0,7.03800306 0,10.1423603 L0,10.1423603 Z" id="Combined-Shape" stroke="#8DC6FB" fill="#FFFFFF"></path>
                <path d="M13.9259806,2.77366379 C13.7026745,2.80724414 13.5217259,3.0149313 13.5217259,3.2364886 L13.5217259,3.39307522 C13.5217259,3.61499753 13.7023029,3.78143926 13.9360127,3.77486919 C13.9360127,3.77486919 15.0525434,3.62558264 15.5953891,4.26908432 C16.1386064,4.912221 15.713916,5.9528468 15.713916,5.9528468 C15.6488934,6.16345399 15.7815395,6.33464076 16.0044741,6.33464076 L16.3745455,6.33464076 C16.6004526,6.33464076 16.8193,6.16016895 16.8560842,5.93678663 C16.8560842,5.93678663 17.2922929,4.26908432 16.2742249,3.35474983 C15.6856776,2.82622434 14.9923511,2.71453318 14.5126701,2.71453318 C14.1622913,2.71453318 13.9259806,2.77366379 13.9259806,2.77366379 L13.9259806,2.77366379 Z" id="Path" stroke="#8DC6FB" fill="#FFFFFF"></path>
                <path d="M2.8713975,11.1935712 C2.58566967,9.19517546 4.85179976,7.23036006 7.93312733,6.80513065 C11.0148265,6.37953623 13.7442889,7.65449446 14.0300168,9.65325521 C14.3164877,11.650921 12.0503576,13.6161014 8.96828693,14.0413308 C8.56774779,14.0971763 8.17352512,14.1234566 7.78970607,14.1234566 C5.21927027,14.1234566 3.12034112,12.9320843 2.8713975,11.1935712 L2.8713975,11.1935712 Z" id="Path"></path>
                <path d="M7.30779581,7.97934784 C5.47490193,8.32938647 4.23352783,9.84816724 4.53523264,11.3716931 C4.83693745,12.8955839 6.56690986,13.8475138 8.39943217,13.4971101 C10.232326,13.1470715 11.4737001,11.6282907 11.1719953,10.1043999 C10.9130197,8.7944013 9.59733403,7.90707709 8.06763119,7.90671208 C7.81868757,7.90671208 7.56454214,7.93043733 7.30779581,7.97934784 L7.30779581,7.97934784 Z" id="Path"></path>
                <path d="M13.5685422,0.0116801213 C13.2319109,0.0186151933 12.9584445,0.292368035 12.9584445,0.626346502 L12.9584445,0.924189594 C12.9584445,1.25670805 13.2307963,1.51075068 13.577088,1.50491062 C13.577088,1.50491062 16.2066015,1.23079278 17.3264762,2.83425442 C18.4459794,4.43844608 17.9625829,6.45034696 17.9625829,6.45034696 C17.9109364,6.77921538 18.1431599,7.04566814 18.4857361,7.04566814 L18.7465695,7.04566814 C19.0869163,7.04566814 19.4012541,6.77994539 19.4380383,6.44815694 C19.4380383,6.44815694 20.0407048,3.28685912 18.1747423,1.52571584 C16.7163785,0.150016557 14.7240864,0 13.9230082,0 C13.6989589,0 13.5685422,0.0116801213 13.5685422,0.0116801213 L13.5685422,0.0116801213 Z" id="Path" stroke="#8DC6FB" fill="#FFFFFF"></path>
                <path d="M5.77363428,11.6903414 C5.57299315,11.268397 5.86763837,10.7165113 6.43203443,10.4584536 C6.99605894,10.1996659 7.6158171,10.3325273 7.81608667,10.7544716 C8.01635624,11.177146 7.72171103,11.7283018 7.15768652,11.9863594 C6.96224719,12.0761504 6.76086295,12.1188558 6.57136855,12.1188558 C6.21467321,12.1188558 5.90442257,11.9662842 5.77363428,11.6903414 L5.77363428,11.6903414 Z" id="Path"></path>
                <path d="M7.88742574,10.1423603 C7.88742574,9.83174207 8.13971338,9.58025446 8.45070713,9.58025446 C8.76244399,9.58025446 9.01436008,9.83174207 9.01436008,10.1423603 C9.01436008,10.4526135 8.76244399,10.7044661 8.45070713,10.7044661 C8.13971338,10.7044661 7.88742574,10.4526135 7.88742574,10.1423603 L7.88742574,10.1423603 Z" id="Path"></path>
            </g>
            <g id="Group-73-Copy" transform="translate(1138.307381, 2867.731043) rotate(-45.000000) translate(-1138.307381, -2867.731043) translate(1121.307381, 2862.231043)" stroke="#787878">
                <use id="Rectangle-49" mask="url(#mask-6)" stroke-width="2" xlink:href="#path-5"></use>
                <use id="Rectangle-49-Copy" mask="url(#mask-8)" stroke-width="2" xlink:href="#path-7"></use>
                <path d="M10.2301948,5.67204301 L23.8704545,5.67204301" id="Line" stroke-linecap="square"></path>
            </g>
            <path d="M1395.5737,2860.47106 L1518.81691,2860.47106" id="Line-Copy-57" stroke="#CACACA" stroke-linecap="square"></path>
            <g id="Layer_1-Copy" opacity="0.215601679" transform="translate(703.049482, 2814.695607) rotate(30.000000) translate(-703.049482, -2814.695607) translate(695.549482, 2804.195607)" stroke="#000000">
                <g id="Group" transform="translate(-0.000000, -0.000000)">
                    <path d="M14.9459443,13.8389157 C14.9459443,13.2130351 14.4561781,12.6566967 13.756512,12.6566967 L13.6165787,12.6566967 C13.0568459,12.6566967 12.5670796,13.0739505 12.497113,13.6302888 L12.497113,12.5871545 C12.497113,11.9612738 12.0073467,11.4049355 11.3076806,11.4049355 L11.1677474,11.4049355 C10.6080145,11.4049355 10.1182482,11.8221893 10.0482816,12.3785276 L10.0482816,11.2658509 C10.0482816,10.6399703 9.55851535,10.083632 8.85884925,10.083632 L8.71891603,10.083632 C8.15918315,10.083632 7.66941688,10.5008858 7.59945027,11.0572241 L7.59945027,6.32834837 C7.59945027,5.70246776 7.10968399,5.14612944 6.41001789,5.14612944 L6.27008467,5.14612944 C5.64038518,5.14612944 5.0806523,5.63292547 5.0806523,6.32834837 L5.0806523,16.6901495 L3.26152044,14.8125077 C2.84172078,14.395254 2.07208807,14.395254 1.65228841,14.8125077 L1.5823218,14.88205 C1.16252214,15.2993038 1.16252214,16.0642689 1.5823218,16.4815227 L5.15061891,20.5149755 C5.29055213,20.7236024 5.57041857,20.8626869 5.85028501,20.8626869 L14.0363784,20.8626869 C14.5261447,20.8626869 14.9459443,20.4454332 14.9459443,19.9586372 L14.9459443,19.9586372 L14.9459443,19.9586372 L14.9459443,13.8389157 L14.9459443,13.8389157 Z" id="Shape"></path>
                    <path d="M2.2819879,5.77201005 L2.2819879,5.77201005 L0.0430563754,5.77201005 L0.0430563754,5.77201005 L2.2819879,5.77201005 L2.2819879,5.77201005 Z" id="Shape"></path>
                    <path d="M6.41001789,3.41060513e-13 L6.41001789,3.41060513e-13 L6.41001789,2.22535327 L6.41001789,2.22535327 L6.41001789,3.41060513e-13 L6.41001789,3.41060513e-13 Z" id="Shape"></path>
                    <path d="M3.89121993,3.47711449 L3.89121993,3.47711449 L2.2819879,1.87764182 L2.2819879,1.87764182 L3.89121993,3.47711449 L3.89121993,3.47711449 Z" id="Shape"></path>
                    <path d="M12.7769794,5.77201005 L12.7769794,5.77201005 L10.5380479,5.77201005 L10.5380479,5.77201005 L12.7769794,5.77201005 L12.7769794,5.77201005 Z" id="Shape"></path>
                    <path d="M10.4680813,1.87764182 L10.4680813,1.87764182 C10.1882148,2.08626869 9.13871569,3.19894533 8.85884925,3.47711449 L8.85884925,3.47711449 L10.4680813,1.87764182 L10.4680813,1.87764182 Z" id="Shape"></path>
                </g>
            </g>
            <g id="个性化服务-copy" transform="translate(1158.763636, 2782.953139)">
                <g id="Group">
                    <g id="XMLID_1_" fill="#777878">
                        <polygon id="XMLID_34_" points="24.6239312 0 0.0800344458 9.39938556 0.18674704 9.6604796 24.7306438 0.261094043"></polygon>
                    </g>
                    <g id="XMLID_3_" transform="translate(11.738385, 0.000000)" fill="#777878">
                        <polygon id="XMLID_32_" points="12.8321895 0.0522188087 0.0266781486 21.7230244 0.240103338 21.8796808 13.0456147 0.208875235"></polygon>
                    </g>
                    <g id="XMLID_5_" transform="translate(7.469882, 13.315796)" fill="#777878">
                        <polygon id="XMLID_30_" points="0.240103338 0.078328213 0.0266781486 0.18276583 4.29518193 8.53777522 4.50860712 8.4333376"></polygon>
                    </g>
                    <g id="XMLID_7_" transform="translate(0.266781, 9.399386)" fill="#777878">
                        <polygon id="XMLID_28_" points="0.18674704 0.0261094043 0.0800344458 0.234984639 7.28313457 4.15139529 7.38984717 3.94252005"></polygon>
                    </g>
                    <g id="XMLID_9_" transform="translate(7.469882, 0.000000)" fill="#787878">
                        <polygon id="XMLID_26_" points="16.8605899 0.287203448 0.0533562972 13.3419056 0.213425189 13.5507808 17.0206588 0.496078682 16.8605899 0.0261094043"></polygon>
                    </g>
                </g>
            </g>
            <path d="M1293.18404,2826.67502 C1291.77988,2826.67502 1290.44696,2827.27761 1289.52686,2828.32951 C1289.38386,2828.49238 1289.40205,2828.73897 1289.56677,2828.87966 C1289.73099,2829.02085 1289.97958,2829.0037 1290.12258,2828.84032 C1290.89312,2827.96039 1292.00877,2827.45562 1293.18404,2827.45562 C1294.39873,2827.45562 1295.53863,2827.98812 1296.3112,2828.91697 C1296.38951,2829.01076 1296.50219,2829.05968 1296.61588,2829.05968 C1296.7043,2829.05968 1296.79323,2829.03043 1296.86649,2828.97042 C1297.03475,2828.83276 1297.0585,2828.58718 1296.92056,2828.42078 C1295.99691,2827.3114 1294.6352,2826.67502 1293.18404,2826.67502 M1293.18404,2822.98079 C1290.91131,2822.98079 1288.72347,2823.93082 1287.18238,2825.58682 C1287.03433,2825.74516 1287.04494,2825.99225 1287.20461,2826.13848 C1287.36478,2826.28472 1287.61489,2826.27413 1287.76193,2826.11579 C1289.15447,2824.61965 1291.13111,2823.7619 1293.18404,2823.7619 C1295.27841,2823.7619 1297.28032,2824.64788 1298.67841,2826.19345 C1298.75623,2826.27968 1298.86385,2826.32355 1298.97198,2826.32355 C1299.06596,2826.32355 1299.15994,2826.29077 1299.23523,2826.2237 C1299.39742,2826.07999 1299.41106,2825.83341 1299.26554,2825.67255 C1297.7189,2823.96209 1295.50174,2822.98079 1293.18404,2822.98079 M1301.45389,2823.09526 C1299.3282,2820.81851 1296.31372,2819.51197 1293.18354,2819.51197 C1290.05285,2819.51197 1287.14448,2820.75447 1284.99453,2823.01004 C1284.84497,2823.16737 1284.85255,2823.41446 1285.0107,2823.56221 C1285.16936,2823.71046 1285.41846,2823.7029 1285.56802,2823.54607 C1287.5674,2821.44834 1290.27163,2820.29307 1293.18354,2820.29307 C1293.82588,2820.29307 1294.46297,2820.35218 1295.08707,2820.46706 C1297.29168,2820.87287 1299.33432,2821.97461 1300.87485,2823.62524 C1300.95266,2823.70844 1301.05826,2823.7508 1301.16437,2823.7508 C1301.25987,2823.7508 1301.35638,2823.71651 1301.43166,2823.64692 C1301.59184,2823.50069 1301.60144,2823.2536 1301.45389,2823.09526 L1331.11119,2813.71649 M1293.22042,2829.7606 C1292.42411,2829.7606 1291.77634,2830.40202 1291.77634,2831.19069 C1291.77634,2831.97936 1292.42411,2832.62078 1293.22042,2832.62078 C1294.01674,2832.62078 1294.66501,2831.97936 1294.66501,2831.19069 C1294.66501,2830.40202 1294.01674,2829.7606 1293.22042,2829.7606 M1293.22042,2831.84018 C1292.85865,2831.84018 1292.56458,2831.54872 1292.56458,2831.19069 C1292.56458,2830.83266 1292.85865,2830.5412 1293.22042,2830.5412 C1293.5822,2830.5412 1293.87627,2830.83266 1293.87627,2831.19069 C1293.87627,2831.54872 1293.5822,2831.84018 1293.22042,2831.84018" id="Page-1-Copy" fill="#787878" opacity="0.4" transform="translate(1307.999119, 2823.168634) rotate(20.000000) translate(-1307.999119, -2823.168634) "></path>
            <ellipse id="Oval-40-Copy-4" stroke="#787878" opacity="0.295592351" cx="744.630195" cy="2887.69687" rx="4.16785714" ry="4.15949821"></ellipse>
        </g>
    </g>
</svg>