<?xml version="1.0" encoding="UTF-8" standalone="no"?>
<svg width="18px" height="172px" viewBox="0 0 18 172" version="1.1" xmlns="http://www.w3.org/2000/svg" xmlns:xlink="http://www.w3.org/1999/xlink">
    <!-- Generator: Sketch 39 (31667) - http://www.bohemiancoding.com/sketch -->
    <title>v</title>
    <desc>Created with Sketch.</desc>
    <defs></defs>
    <g id="Page-1" stroke="none" stroke-width="1" fill="none" fill-rule="evenodd">
        <g id="v" transform="translate(-385.000000, -2493.000000)">
            <path d="M424.842262,2494.46826 C424.842262,2494.46826 434.913843,2495.00843 445.424538,2492.53711 C457.449678,2489.70971 470.673446,2483.70605 486.448952,2483.70605 C516.013198,2483.70605 525.526837,2500.15049 551.806167,2500.15049 C578.085496,2500.15049 622.431865,2477.7233 656.375999,2477.7233 C690.320133,2477.7233 711.672088,2512.8932 776.27544,2510.85437 C840.878792,2508.81553 855.660915,2466 907.124602,2466 C958.588289,2466 984.320133,2498.57612 1041.25868,2505.98951 C1098.19723,2513.40291 1124.47656,2476.70388 1175.39276,2478.74272 C1226.30896,2480.78155 1244.11692,2502.59775 1275.23801,2500.15049 C1293.03098,2498.25195 1315.48118,2483.70605 1337.94602,2483.70605 C1353.62571,2483.70605 1371.84641,2494.5415 1404.29807,2494.5415 L1762.3363,2494.5415 L1762.3363,2669.69453 L223,2669.69453 L223,2494.5415" fill="#F5F5F5"></path>
            <path d="M261.5,2493.5 L421.5,2493.5" id="Line-Copy-56" stroke="#CACACA" stroke-linecap="square"></path>
        </g>
    </g>
</svg>